<?xml version='1.0' standalone='no'?><!DOCTYPE svg PUBLIC '-//W3C//DTD SVG 1.1//EN' 'http://www.w3.org/Graphics/SVG/1.1/DTD/svg11.dtd'><svg width="400mm" height="300mm" viewBox="0 0 400 300" version="1.1" xmlns="http://www.w3.org/2000/svg"><path d="M1 1v19.909382810855753h3.9v19.789382810855756h-3.9v19.909382810855753h3.9v19.789382810855756h-3.9v19.909382810855753h3.9v19.789382810855756h-3.9v19.909382810855753h3.9v19.789382810855756h-3.9v19.909382810855753h3.9v19.789382810855756h-3.9v19.909382810855753h3.9v19.789382810855756h-3.9v19.909382810855753h3.9v19.789382810855756h-3.9v19.909382810855753h3.9v19.789382810855756h-3.9v19.909382810855753h3.9v19.789382810855756h-3.9v19.909382810855753h3.9v19.789382810855756h-3.9v19.909382810855753h3.9v19.789382810855756h-3.9v19.909382810855753h54.09042659573078v-19.909382810855753h-3.9v-19.789382810855756h3.9v-19.909382810855753h-3.9v-19.789382810855756h3.9v-19.909382810855753h-3.9v-19.789382810855756h3.9v-19.909382810855753h-3.9v-19.789382810855756h3.9v-19.909382810855753h-3.9v-19.789382810855756h3.9v-19.909382810855753h-3.9v-19.789382810855756h3.9v-19.909382810855753h-3.9v-19.789382810855756h3.9v-19.909382810855753h-3.9v-19.789382810855756h3.9v-19.909382810855753h-3.9v-19.789382810855756h3.9v-19.909382810855753h-3.9v-19.789382810855756h3.9v-19.909382810855753h-3.9v-19.789382810855756h3.9v-19.909382810855753Z"></path><path d="M59.93042659573078 1v19.849382810855754h-3.9v19.909382810855753h3.9v19.789382810855756h-3.9v19.909382810855753h3.9v19.789382810855756h-3.9v19.909382810855753h3.9v19.789382810855756h-3.9v19.909382810855753h3.9v19.789382810855756h-3.9v19.909382810855753h3.9v19.789382810855756h-3.9v19.909382810855753h3.9v19.789382810855756h-3.9v19.909382810855753h3.9v19.789382810855756h-3.9v19.909382810855753h3.9v19.789382810855756h-3.9v19.909382810855753h3.9v19.789382810855756h-3.9v19.909382810855753h3.9v19.789382810855756h-3.9v19.909382810855753h3.9v19.789382810855756v0.06h46.290426595730786v-19.849382810855754h3.9v-19.909382810855753h-3.9v-19.789382810855756h3.9v-19.909382810855753h-3.9v-19.789382810855756h3.9v-19.909382810855753h-3.9v-19.789382810855756h3.9v-19.909382810855753h-3.9v-19.789382810855756h3.9v-19.909382810855753h-3.9v-19.789382810855756h3.9v-19.909382810855753h-3.9v-19.789382810855756h3.9v-19.909382810855753h-3.9v-19.789382810855756h3.9v-19.909382810855753h-3.9v-19.789382810855756h3.9v-19.909382810855753h-3.9v-19.789382810855756h3.9v-19.909382810855753h-3.9v-19.789382810855756h3.9v-19.909382810855753h-3.9v-19.789382810855756v-0.06Z"></path><path d="M111.06085319146156 1v19.909382810855753h3.9v19.789382810855756h-3.9v19.909382810855753h3.9v19.789382810855756h-3.9v19.909382810855753h3.9v19.789382810855756h-3.9v19.909382810855753h3.9v19.789382810855756h-3.9v19.909382810855753h3.9v19.789382810855756h-3.9v19.909382810855753h3.9v19.789382810855756h-3.9v19.909382810855753h3.9v19.789382810855756h-3.9v19.909382810855753h3.9v19.789382810855756h-3.9v19.909382810855753h3.9v19.789382810855756h-3.9v19.909382810855753h3.9v19.789382810855756h-3.9v19.909382810855753h3.9v19.789382810855756h-3.9v19.909382810855753h54.09042659573078v-19.909382810855753h-3.9v-19.789382810855756h3.9v-19.909382810855753h-3.9v-19.789382810855756h3.9v-19.909382810855753h-3.9v-19.789382810855756h3.9v-19.909382810855753h-3.9v-19.789382810855756h3.9v-19.909382810855753h-3.9v-19.789382810855756h3.9v-19.909382810855753h-3.9v-19.789382810855756h3.9v-19.909382810855753h-3.9v-19.789382810855756h3.9v-19.909382810855753h-3.9v-19.789382810855756h3.9v-19.909382810855753h-3.9v-19.789382810855756h3.9v-19.909382810855753h-3.9v-19.789382810855756h3.9v-19.909382810855753h-3.9v-19.789382810855756h3.9v-19.909382810855753Z"></path><path d="M169.99127978719235 1v19.849382810855754h-3.9v19.909382810855753h3.9v19.789382810855756h-3.9v19.909382810855753h3.9v19.789382810855756h-3.9v19.909382810855753h3.9v19.789382810855756h-3.9v19.909382810855753h3.9v19.789382810855756h-3.9v19.909382810855753h3.9v19.789382810855756h-3.9v19.909382810855753h3.9v19.789382810855756h-3.9v19.909382810855753h3.9v19.789382810855756h-3.9v19.909382810855753h3.9v19.789382810855756h-3.9v19.909382810855753h3.9v19.789382810855756h-3.9v19.909382810855753h3.9v19.789382810855756h-3.9v19.909382810855753h3.9v19.789382810855756v0.06h46.290426595730786v-19.849382810855754h3.9v-19.909382810855753h-3.9v-19.789382810855756h3.9v-19.909382810855753h-3.9v-19.789382810855756h3.9v-19.909382810855753h-3.9v-19.789382810855756h3.9v-19.909382810855753h-3.9v-19.789382810855756h3.9v-19.909382810855753h-3.9v-19.789382810855756h3.9v-19.909382810855753h-3.9v-19.789382810855756h3.9v-19.909382810855753h-3.9v-19.789382810855756h3.9v-19.909382810855753h-3.9v-19.789382810855756h3.9v-19.909382810855753h-3.9v-19.789382810855756h3.9v-19.909382810855753h-3.9v-19.789382810855756h3.9v-19.909382810855753h-3.9v-19.789382810855756v-0.06Z"></path><path d="M221.12170638292312 1v17.619069409603167h3.9v17.49906940960317h-3.9v17.619069409603167h3.9v17.49906940960317h-3.9v17.619069409603167h3.9v17.49906940960317h-3.9v17.619069409603167h3.9v17.49906940960317h-3.9v17.619069409603167h3.9v17.49906940960317h-3.9v17.619069409603167h3.9v17.49906940960317h-3.9v17.619069409603167h63.29042659573078v-17.619069409603167h-3.9v-17.49906940960317h3.9v-17.619069409603167h-3.9v-17.49906940960317h3.9v-17.619069409603167h-3.9v-17.49906940960317h3.9v-17.619069409603167h-3.9v-17.49906940960317h3.9v-17.619069409603167h-3.9v-17.49906940960317h3.9v-17.619069409603167h-3.9v-17.49906940960317h3.9v-17.619069409603167Z"></path><path d="M225.02170638292313 234.28790232484118v17.55906940960317h-3.9v17.619069409603167h3.9v17.49906940960317h-3.9v17.619069409603167h3.9v17.49906940960317h-3.9v17.619069409603167h3.9v17.49906940960317h-3.9v17.619069409603167h3.9v17.49906940960317h-3.9v17.619069409603167h3.9v17.49906940960317h-3.9v17.619069409603167h3.9v17.49906940960317v0.06h55.49042659573078v-17.55906940960317h3.9v-17.619069409603167h-3.9v-17.49906940960317h3.9v-17.619069409603167h-3.9v-17.49906940960317h3.9v-17.619069409603167h-3.9v-17.49906940960317h3.9v-17.619069409603167h-3.9v-17.49906940960317h3.9v-17.619069409603167h-3.9v-17.49906940960317h3.9v-17.619069409603167h-3.9v-17.49906940960317v-0.06Z"></path><path d="M285.3521329786539 1v17.619069409603167h3.9v17.49906940960317h-3.9v17.619069409603167h3.9v17.49906940960317h-3.9v17.619069409603167h3.9v17.49906940960317h-3.9v17.619069409603167h3.9v17.49906940960317h-3.9v17.619069409603167h3.9v17.49906940960317h-3.9v17.619069409603167h3.9v17.49906940960317h-3.9v17.619069409603167h63.29042659573078v-17.619069409603167h-3.9v-17.49906940960317h3.9v-17.619069409603167h-3.9v-17.49906940960317h3.9v-17.619069409603167h-3.9v-17.49906940960317h3.9v-17.619069409603167h-3.9v-17.49906940960317h3.9v-17.619069409603167h-3.9v-17.49906940960317h3.9v-17.619069409603167h-3.9v-17.49906940960317h3.9v-17.619069409603167Z"></path><path d="M289.2521329786539 234.28790232484118v17.55906940960317h-3.9v17.619069409603167h3.9v17.49906940960317h-3.9v17.619069409603167h3.9v17.49906940960317h-3.9v17.619069409603167h3.9v17.49906940960317h-3.9v17.619069409603167h3.9v17.49906940960317h-3.9v17.619069409603167h3.9v17.49906940960317h-3.9v17.619069409603167h3.9v17.49906940960317v0.06h55.49042659573078v-17.55906940960317h3.9v-17.619069409603167h-3.9v-17.49906940960317h3.9v-17.619069409603167h-3.9v-17.49906940960317h3.9v-17.619069409603167h-3.9v-17.49906940960317h3.9v-17.619069409603167h-3.9v-17.49906940960317h3.9v-17.619069409603167h-3.9v-17.49906940960317h3.9v-17.619069409603167h-3.9v-17.49906940960317v-0.06Z"></path><path d="M349.5825595743847 1v218.9817063829231h228.32790232484118v-218.9817063829231Z"></path></svg>