<?xml version='1.0' standalone='no'?><!DOCTYPE svg PUBLIC '-//W3C//DTD SVG 1.1//EN' 'http://www.w3.org/Graphics/SVG/1.1/DTD/svg11.dtd'><svg width="400mm" height="300mm" viewBox="0 0 400 300" version="1.1" xmlns="http://www.w3.org/2000/svg"><path d="M1 1v18.674515104608467h3.9v18.55451510460847h-3.9v18.674515104608467h3.9v18.55451510460847h-3.9v18.674515104608467h3.9v18.55451510460847h-3.9v18.674515104608467h3.9v18.55451510460847h-3.9v18.674515104608467h3.9v18.55451510460847h-3.9v18.674515104608467h3.9v18.55451510460847h-3.9v18.674515104608467h3.9v18.55451510460847h-3.9v18.674515104608467h3.9v18.55451510460847h-3.9v18.674515104608467h3.9v18.55451510460847h-3.9v18.674515104608467h3.9v18.55451510460847h-3.9v18.674515104608467h3.9v18.55451510460847h-3.9v18.674515104608467h52.13040817616639v-18.674515104608467h-3.9v-18.55451510460847h3.9v-18.674515104608467h-3.9v-18.55451510460847h3.9v-18.674515104608467h-3.9v-18.55451510460847h3.9v-18.674515104608467h-3.9v-18.55451510460847h3.9v-18.674515104608467h-3.9v-18.55451510460847h3.9v-18.674515104608467h-3.9v-18.55451510460847h3.9v-18.674515104608467h-3.9v-18.55451510460847h3.9v-18.674515104608467h-3.9v-18.55451510460847h3.9v-18.674515104608467h-3.9v-18.55451510460847h3.9v-18.674515104608467h-3.9v-18.55451510460847h3.9v-18.674515104608467h-3.9v-18.55451510460847h3.9v-18.674515104608467Z"></path><path d="M57.97040817616639 1v18.61451510460847h-3.9v18.674515104608467h3.9v18.55451510460847h-3.9v18.674515104608467h3.9v18.55451510460847h-3.9v18.674515104608467h3.9v18.55451510460847h-3.9v18.674515104608467h3.9v18.55451510460847h-3.9v18.674515104608467h3.9v18.55451510460847h-3.9v18.674515104608467h3.9v18.55451510460847h-3.9v18.674515104608467h3.9v18.55451510460847h-3.9v18.674515104608467h3.9v18.55451510460847h-3.9v18.674515104608467h3.9v18.55451510460847h-3.9v18.674515104608467h3.9v18.55451510460847h-3.9v18.674515104608467h3.9v18.55451510460847v0.06h44.330408176166394v-18.61451510460847h3.9v-18.674515104608467h-3.9v-18.55451510460847h3.9v-18.674515104608467h-3.9v-18.55451510460847h3.9v-18.674515104608467h-3.9v-18.55451510460847h3.9v-18.674515104608467h-3.9v-18.55451510460847h3.9v-18.674515104608467h-3.9v-18.55451510460847h3.9v-18.674515104608467h-3.9v-18.55451510460847h3.9v-18.674515104608467h-3.9v-18.55451510460847h3.9v-18.674515104608467h-3.9v-18.55451510460847h3.9v-18.674515104608467h-3.9v-18.55451510460847h3.9v-18.674515104608467h-3.9v-18.55451510460847h3.9v-18.674515104608467h-3.9v-18.55451510460847v-0.06Z"></path><path d="M107.14081635233278 1v18.674515104608467h3.9v18.55451510460847h-3.9v18.674515104608467h3.9v18.55451510460847h-3.9v18.674515104608467h3.9v18.55451510460847h-3.9v18.674515104608467h3.9v18.55451510460847h-3.9v18.674515104608467h3.9v18.55451510460847h-3.9v18.674515104608467h3.9v18.55451510460847h-3.9v18.674515104608467h3.9v18.55451510460847h-3.9v18.674515104608467h3.9v18.55451510460847h-3.9v18.674515104608467h3.9v18.55451510460847h-3.9v18.674515104608467h3.9v18.55451510460847h-3.9v18.674515104608467h3.9v18.55451510460847h-3.9v18.674515104608467h52.13040817616639v-18.674515104608467h-3.9v-18.55451510460847h3.9v-18.674515104608467h-3.9v-18.55451510460847h3.9v-18.674515104608467h-3.9v-18.55451510460847h3.9v-18.674515104608467h-3.9v-18.55451510460847h3.9v-18.674515104608467h-3.9v-18.55451510460847h3.9v-18.674515104608467h-3.9v-18.55451510460847h3.9v-18.674515104608467h-3.9v-18.55451510460847h3.9v-18.674515104608467h-3.9v-18.55451510460847h3.9v-18.674515104608467h-3.9v-18.55451510460847h3.9v-18.674515104608467h-3.9v-18.55451510460847h3.9v-18.674515104608467h-3.9v-18.55451510460847h3.9v-18.674515104608467Z"></path><path d="M164.11122452849918 1v18.61451510460847h-3.9v18.674515104608467h3.9v18.55451510460847h-3.9v18.674515104608467h3.9v18.55451510460847h-3.9v18.674515104608467h3.9v18.55451510460847h-3.9v18.674515104608467h3.9v18.55451510460847h-3.9v18.674515104608467h3.9v18.55451510460847h-3.9v18.674515104608467h3.9v18.55451510460847h-3.9v18.674515104608467h3.9v18.55451510460847h-3.9v18.674515104608467h3.9v18.55451510460847h-3.9v18.674515104608467h3.9v18.55451510460847h-3.9v18.674515104608467h3.9v18.55451510460847h-3.9v18.674515104608467h3.9v18.55451510460847v0.06h44.330408176166394v-18.61451510460847h3.9v-18.674515104608467h-3.9v-18.55451510460847h3.9v-18.674515104608467h-3.9v-18.55451510460847h3.9v-18.674515104608467h-3.9v-18.55451510460847h3.9v-18.674515104608467h-3.9v-18.55451510460847h3.9v-18.674515104608467h-3.9v-18.55451510460847h3.9v-18.674515104608467h-3.9v-18.55451510460847h3.9v-18.674515104608467h-3.9v-18.55451510460847h3.9v-18.674515104608467h-3.9v-18.55451510460847h3.9v-18.674515104608467h-3.9v-18.55451510460847h3.9v-18.674515104608467h-3.9v-18.55451510460847h3.9v-18.674515104608467h-3.9v-18.55451510460847v-0.06Z"></path><path d="M213.28163270466555 1v19.520629427545213h3.9v19.400629427545216h-3.9v19.520629427545213h3.9v19.400629427545216h-3.9v19.520629427545213h3.9v19.400629427545216h-3.9v19.520629427545213h3.9v19.400629427545216h-3.9v19.520629427545213h3.9v19.400629427545216h-3.9v19.520629427545213h61.33040817616639v-19.520629427545213h-3.9v-19.400629427545216h3.9v-19.520629427545213h-3.9v-19.400629427545216h3.9v-19.520629427545213h-3.9v-19.400629427545216h3.9v-19.520629427545213h-3.9v-19.400629427545216h3.9v-19.520629427545213h-3.9v-19.400629427545216h3.9v-19.520629427545213Z"></path><path d="M217.18163270466556 220.08692370299738v19.460629427545214h-3.9v19.520629427545213h3.9v19.400629427545216h-3.9v19.520629427545213h3.9v19.400629427545216h-3.9v19.520629427545213h3.9v19.400629427545216h-3.9v19.520629427545213h3.9v19.400629427545216h-3.9v19.520629427545213h3.9v19.400629427545216v0.06h53.53040817616639v-19.460629427545214h3.9v-19.520629427545213h-3.9v-19.400629427545216h3.9v-19.520629427545213h-3.9v-19.400629427545216h3.9v-19.520629427545213h-3.9v-19.400629427545216h3.9v-19.520629427545213h-3.9v-19.400629427545216h3.9v-19.520629427545213h-3.9v-19.400629427545216v-0.06Z"></path><path d="M275.55204088083195 1v19.520629427545213h3.9v19.400629427545216h-3.9v19.520629427545213h3.9v19.400629427545216h-3.9v19.520629427545213h3.9v19.400629427545216h-3.9v19.520629427545213h3.9v19.400629427545216h-3.9v19.520629427545213h3.9v19.400629427545216h-3.9v19.520629427545213h61.33040817616639v-19.520629427545213h-3.9v-19.400629427545216h3.9v-19.520629427545213h-3.9v-19.400629427545216h3.9v-19.520629427545213h-3.9v-19.400629427545216h3.9v-19.520629427545213h-3.9v-19.400629427545216h3.9v-19.520629427545213h-3.9v-19.400629427545216h3.9v-19.520629427545213Z"></path><path d="M279.45204088083193 220.08692370299738v19.460629427545214h-3.9v19.520629427545213h3.9v19.400629427545216h-3.9v19.520629427545213h3.9v19.400629427545216h-3.9v19.520629427545213h3.9v19.400629427545216h-3.9v19.520629427545213h3.9v19.400629427545216h-3.9v19.520629427545213h3.9v19.400629427545216v0.06h53.53040817616639v-19.460629427545214h3.9v-19.520629427545213h-3.9v-19.400629427545216h3.9v-19.520629427545213h-3.9v-19.400629427545216h3.9v-19.520629427545213h-3.9v-19.400629427545216h3.9v-19.520629427545213h-3.9v-19.400629427545216h3.9v-19.520629427545213h-3.9v-19.400629427545216v-0.06Z"></path><path d="M337.8224490569983 1v211.14163270466554h214.12692370299737v-211.14163270466554Z"></path></svg>