<?xml version='1.0' standalone='no'?><!DOCTYPE svg PUBLIC '-//W3C//DTD SVG 1.1//EN' 'http://www.w3.org/Graphics/SVG/1.1/DTD/svg11.dtd'><svg width="400mm" height="300mm" viewBox="0 0 400 300" version="1.1" xmlns="http://www.w3.org/2000/svg"><path d="M1 1v19.17368922021985h3.9v19.05368922021985h-3.9v19.17368922021985h3.9v19.05368922021985h-3.9v19.17368922021985h3.9v19.05368922021985h-3.9v19.17368922021985h3.9v19.05368922021985h-3.9v19.17368922021985h3.9v19.05368922021985h-3.9v19.17368922021985h3.9v19.05368922021985h-3.9v19.17368922021985h3.9v19.05368922021985h-3.9v19.17368922021985h3.9v19.05368922021985h-3.9v19.17368922021985h3.9v19.05368922021985h-3.9v19.17368922021985h3.9v19.05368922021985h-3.9v19.17368922021985h50.25348810736189v-19.17368922021985h-3.9v-19.05368922021985h3.9v-19.17368922021985h-3.9v-19.05368922021985h3.9v-19.17368922021985h-3.9v-19.05368922021985h3.9v-19.17368922021985h-3.9v-19.05368922021985h3.9v-19.17368922021985h-3.9v-19.05368922021985h3.9v-19.17368922021985h-3.9v-19.05368922021985h3.9v-19.17368922021985h-3.9v-19.05368922021985h3.9v-19.17368922021985h-3.9v-19.05368922021985h3.9v-19.17368922021985h-3.9v-19.05368922021985h3.9v-19.17368922021985h-3.9v-19.05368922021985h3.9v-19.17368922021985Z"></path><path d="M56.093488107361885 1v19.11368922021985h-3.9v19.17368922021985h3.9v19.05368922021985h-3.9v19.17368922021985h3.9v19.05368922021985h-3.9v19.17368922021985h3.9v19.05368922021985h-3.9v19.17368922021985h3.9v19.05368922021985h-3.9v19.17368922021985h3.9v19.05368922021985h-3.9v19.17368922021985h3.9v19.05368922021985h-3.9v19.17368922021985h3.9v19.05368922021985h-3.9v19.17368922021985h3.9v19.05368922021985h-3.9v19.17368922021985h3.9v19.05368922021985h-3.9v19.17368922021985h3.9v19.05368922021985v0.06h42.45348810736189v-19.11368922021985h3.9v-19.17368922021985h-3.9v-19.05368922021985h3.9v-19.17368922021985h-3.9v-19.05368922021985h3.9v-19.17368922021985h-3.9v-19.05368922021985h3.9v-19.17368922021985h-3.9v-19.05368922021985h3.9v-19.17368922021985h-3.9v-19.05368922021985h3.9v-19.17368922021985h-3.9v-19.05368922021985h3.9v-19.17368922021985h-3.9v-19.05368922021985h3.9v-19.17368922021985h-3.9v-19.05368922021985h3.9v-19.17368922021985h-3.9v-19.05368922021985h3.9v-19.17368922021985h-3.9v-19.05368922021985v-0.06Z"></path><path d="M103.38697621472377 1v19.17368922021985h3.9v19.05368922021985h-3.9v19.17368922021985h3.9v19.05368922021985h-3.9v19.17368922021985h3.9v19.05368922021985h-3.9v19.17368922021985h3.9v19.05368922021985h-3.9v19.17368922021985h3.9v19.05368922021985h-3.9v19.17368922021985h3.9v19.05368922021985h-3.9v19.17368922021985h3.9v19.05368922021985h-3.9v19.17368922021985h3.9v19.05368922021985h-3.9v19.17368922021985h3.9v19.05368922021985h-3.9v19.17368922021985h3.9v19.05368922021985h-3.9v19.17368922021985h50.25348810736189v-19.17368922021985h-3.9v-19.05368922021985h3.9v-19.17368922021985h-3.9v-19.05368922021985h3.9v-19.17368922021985h-3.9v-19.05368922021985h3.9v-19.17368922021985h-3.9v-19.05368922021985h3.9v-19.17368922021985h-3.9v-19.05368922021985h3.9v-19.17368922021985h-3.9v-19.05368922021985h3.9v-19.17368922021985h-3.9v-19.05368922021985h3.9v-19.17368922021985h-3.9v-19.05368922021985h3.9v-19.17368922021985h-3.9v-19.05368922021985h3.9v-19.17368922021985h-3.9v-19.05368922021985h3.9v-19.17368922021985Z"></path><path d="M158.48046432208568 1v19.11368922021985h-3.9v19.17368922021985h3.9v19.05368922021985h-3.9v19.17368922021985h3.9v19.05368922021985h-3.9v19.17368922021985h3.9v19.05368922021985h-3.9v19.17368922021985h3.9v19.05368922021985h-3.9v19.17368922021985h3.9v19.05368922021985h-3.9v19.17368922021985h3.9v19.05368922021985h-3.9v19.17368922021985h3.9v19.05368922021985h-3.9v19.17368922021985h3.9v19.05368922021985h-3.9v19.17368922021985h3.9v19.05368922021985h-3.9v19.17368922021985h3.9v19.05368922021985v0.06h42.45348810736189v-19.11368922021985h3.9v-19.17368922021985h-3.9v-19.05368922021985h3.9v-19.17368922021985h-3.9v-19.05368922021985h3.9v-19.17368922021985h-3.9v-19.05368922021985h3.9v-19.17368922021985h-3.9v-19.05368922021985h3.9v-19.17368922021985h-3.9v-19.05368922021985h3.9v-19.17368922021985h-3.9v-19.05368922021985h3.9v-19.17368922021985h-3.9v-19.05368922021985h3.9v-19.17368922021985h-3.9v-19.05368922021985h3.9v-19.17368922021985h-3.9v-19.05368922021985h3.9v-19.17368922021985h-3.9v-19.05368922021985v-0.06Z"></path><path d="M205.77395242944755 1v18.304885164755312h3.9v18.184885164755315h-3.9v18.304885164755312h3.9v18.184885164755315h-3.9v18.304885164755312h3.9v18.184885164755315h-3.9v18.304885164755312h3.9v18.184885164755315h-3.9v18.304885164755312h3.9v18.184885164755315h-3.9v18.304885164755312h59.45348810736189v-18.304885164755312h-3.9v-18.184885164755315h3.9v-18.304885164755312h-3.9v-18.184885164755315h3.9v-18.304885164755312h-3.9v-18.184885164755315h3.9v-18.304885164755312h-3.9v-18.184885164755315h3.9v-18.304885164755312h-3.9v-18.184885164755315h3.9v-18.304885164755312Z"></path><path d="M209.67395242944755 206.71373681230844v18.244885164755313h-3.9v18.304885164755312h3.9v18.184885164755315h-3.9v18.304885164755312h3.9v18.184885164755315h-3.9v18.304885164755312h3.9v18.184885164755315h-3.9v18.304885164755312h3.9v18.184885164755315h-3.9v18.304885164755312h3.9v18.184885164755315v0.06h51.653488107361895v-18.244885164755313h3.9v-18.304885164755312h-3.9v-18.184885164755315h3.9v-18.304885164755312h-3.9v-18.184885164755315h3.9v-18.304885164755312h-3.9v-18.184885164755315h3.9v-18.304885164755312h-3.9v-18.184885164755315h3.9v-18.304885164755312h-3.9v-18.184885164755315v-0.06Z"></path><path d="M266.1674405368094 1v18.304885164755312h3.9v18.184885164755315h-3.9v18.304885164755312h3.9v18.184885164755315h-3.9v18.304885164755312h3.9v18.184885164755315h-3.9v18.304885164755312h3.9v18.184885164755315h-3.9v18.304885164755312h3.9v18.184885164755315h-3.9v18.304885164755312h59.45348810736189v-18.304885164755312h-3.9v-18.184885164755315h3.9v-18.304885164755312h-3.9v-18.184885164755315h3.9v-18.304885164755312h-3.9v-18.184885164755315h3.9v-18.304885164755312h-3.9v-18.184885164755315h3.9v-18.304885164755312h-3.9v-18.184885164755315h3.9v-18.304885164755312Z"></path><path d="M270.0674405368094 206.71373681230844v18.244885164755313h-3.9v18.304885164755312h3.9v18.184885164755315h-3.9v18.304885164755312h3.9v18.184885164755315h-3.9v18.304885164755312h3.9v18.184885164755315h-3.9v18.304885164755312h3.9v18.184885164755315h-3.9v18.304885164755312h3.9v18.184885164755315v0.06h51.653488107361895v-18.244885164755313h3.9v-18.304885164755312h-3.9v-18.184885164755315h3.9v-18.304885164755312h-3.9v-18.184885164755315h3.9v-18.304885164755312h-3.9v-18.184885164755315h3.9v-18.304885164755312h-3.9v-18.184885164755315h3.9v-18.304885164755312h-3.9v-18.184885164755315v-0.06Z"></path><path d="M326.5609286441713 1v203.63395242944756h200.75373681230843v-203.63395242944756Z"></path></svg>