<?xml version='1.0' standalone='no'?><!DOCTYPE svg PUBLIC '-//W3C//DTD SVG 1.1//EN' 'http://www.w3.org/Graphics/SVG/1.1/DTD/svg11.dtd'><svg width="400mm" height="300mm" viewBox="0 0 400 300" version="1.1" xmlns="http://www.w3.org/2000/svg"><path d="M1 1v19.86006206233031h3.9v19.740062062330313h-3.9v19.86006206233031h3.9v19.740062062330313h-3.9v19.86006206233031h3.9v19.740062062330313h-3.9v19.86006206233031h3.9v19.740062062330313h-3.9v19.86006206233031h3.9v19.740062062330313h-3.9v19.86006206233031h3.9v19.740062062330313h-3.9v19.86006206233031h3.9v19.740062062330313h-3.9v19.86006206233031h3.9v19.740062062330313h-3.9v19.86006206233031h3.9v19.740062062330313h-3.9v19.86006206233031h48.45614329186571v-19.86006206233031h-3.9v-19.740062062330313h3.9v-19.86006206233031h-3.9v-19.740062062330313h3.9v-19.86006206233031h-3.9v-19.740062062330313h3.9v-19.86006206233031h-3.9v-19.740062062330313h3.9v-19.86006206233031h-3.9v-19.740062062330313h3.9v-19.86006206233031h-3.9v-19.740062062330313h3.9v-19.86006206233031h-3.9v-19.740062062330313h3.9v-19.86006206233031h-3.9v-19.740062062330313h3.9v-19.86006206233031h-3.9v-19.740062062330313h3.9v-19.86006206233031Z"></path><path d="M54.296143291865704 1v19.800062062330312h-3.9v19.86006206233031h3.9v19.740062062330313h-3.9v19.86006206233031h3.9v19.740062062330313h-3.9v19.86006206233031h3.9v19.740062062330313h-3.9v19.86006206233031h3.9v19.740062062330313h-3.9v19.86006206233031h3.9v19.740062062330313h-3.9v19.86006206233031h3.9v19.740062062330313h-3.9v19.86006206233031h3.9v19.740062062330313h-3.9v19.86006206233031h3.9v19.740062062330313h-3.9v19.86006206233031h3.9v19.740062062330313v0.06h40.65614329186571v-19.800062062330312h3.9v-19.86006206233031h-3.9v-19.740062062330313h3.9v-19.86006206233031h-3.9v-19.740062062330313h3.9v-19.86006206233031h-3.9v-19.740062062330313h3.9v-19.86006206233031h-3.9v-19.740062062330313h3.9v-19.86006206233031h-3.9v-19.740062062330313h3.9v-19.86006206233031h-3.9v-19.740062062330313h3.9v-19.86006206233031h-3.9v-19.740062062330313h3.9v-19.86006206233031h-3.9v-19.740062062330313h3.9v-19.86006206233031h-3.9v-19.740062062330313v-0.06Z"></path><path d="M99.79228658373141 1v19.86006206233031h3.9v19.740062062330313h-3.9v19.86006206233031h3.9v19.740062062330313h-3.9v19.86006206233031h3.9v19.740062062330313h-3.9v19.86006206233031h3.9v19.740062062330313h-3.9v19.86006206233031h3.9v19.740062062330313h-3.9v19.86006206233031h3.9v19.740062062330313h-3.9v19.86006206233031h3.9v19.740062062330313h-3.9v19.86006206233031h3.9v19.740062062330313h-3.9v19.86006206233031h3.9v19.740062062330313h-3.9v19.86006206233031h48.45614329186571v-19.86006206233031h-3.9v-19.740062062330313h3.9v-19.86006206233031h-3.9v-19.740062062330313h3.9v-19.86006206233031h-3.9v-19.740062062330313h3.9v-19.86006206233031h-3.9v-19.740062062330313h3.9v-19.86006206233031h-3.9v-19.740062062330313h3.9v-19.86006206233031h-3.9v-19.740062062330313h3.9v-19.86006206233031h-3.9v-19.740062062330313h3.9v-19.86006206233031h-3.9v-19.740062062330313h3.9v-19.86006206233031h-3.9v-19.740062062330313h3.9v-19.86006206233031Z"></path><path d="M153.08842987559711 1v19.800062062330312h-3.9v19.86006206233031h3.9v19.740062062330313h-3.9v19.86006206233031h3.9v19.740062062330313h-3.9v19.86006206233031h3.9v19.740062062330313h-3.9v19.86006206233031h3.9v19.740062062330313h-3.9v19.86006206233031h3.9v19.740062062330313h-3.9v19.86006206233031h3.9v19.740062062330313h-3.9v19.86006206233031h3.9v19.740062062330313h-3.9v19.86006206233031h3.9v19.740062062330313h-3.9v19.86006206233031h3.9v19.740062062330313v0.06h40.65614329186571v-19.800062062330312h3.9v-19.86006206233031h-3.9v-19.740062062330313h3.9v-19.86006206233031h-3.9v-19.740062062330313h3.9v-19.86006206233031h-3.9v-19.740062062330313h3.9v-19.86006206233031h-3.9v-19.740062062330313h3.9v-19.86006206233031h-3.9v-19.740062062330313h3.9v-19.86006206233031h-3.9v-19.740062062330313h3.9v-19.86006206233031h-3.9v-19.740062062330313h3.9v-19.86006206233031h-3.9v-19.740062062330313h3.9v-19.86006206233031h-3.9v-19.740062062330313v-0.06Z"></path><path d="M198.58457316746282 1v17.16005359928527h3.9v17.040053599285272h-3.9v17.16005359928527h3.9v17.040053599285272h-3.9v17.16005359928527h3.9v17.040053599285272h-3.9v17.16005359928527h3.9v17.040053599285272h-3.9v17.16005359928527h3.9v17.040053599285272h-3.9v17.16005359928527h57.6561432918657v-17.16005359928527h-3.9v-17.040053599285272h3.9v-17.16005359928527h-3.9v-17.040053599285272h3.9v-17.16005359928527h-3.9v-17.040053599285272h3.9v-17.16005359928527h-3.9v-17.040053599285272h3.9v-17.16005359928527h-3.9v-17.040053599285272h3.9v-17.16005359928527Z"></path><path d="M202.48457316746283 194.12058959213797v17.10005359928527h-3.9v17.16005359928527h3.9v17.040053599285272h-3.9v17.16005359928527h3.9v17.040053599285272h-3.9v17.16005359928527h3.9v17.040053599285272h-3.9v17.16005359928527h3.9v17.040053599285272h-3.9v17.16005359928527h3.9v17.040053599285272v0.06h49.856143291865706v-17.10005359928527h3.9v-17.16005359928527h-3.9v-17.040053599285272h3.9v-17.16005359928527h-3.9v-17.040053599285272h3.9v-17.16005359928527h-3.9v-17.040053599285272h3.9v-17.16005359928527h-3.9v-17.040053599285272h3.9v-17.16005359928527h-3.9v-17.040053599285272v-0.06Z"></path><path d="M257.18071645932855 1v17.16005359928527h3.9v17.040053599285272h-3.9v17.16005359928527h3.9v17.040053599285272h-3.9v17.16005359928527h3.9v17.040053599285272h-3.9v17.16005359928527h3.9v17.040053599285272h-3.9v17.16005359928527h3.9v17.040053599285272h-3.9v17.16005359928527h57.6561432918657v-17.16005359928527h-3.9v-17.040053599285272h3.9v-17.16005359928527h-3.9v-17.040053599285272h3.9v-17.16005359928527h-3.9v-17.040053599285272h3.9v-17.16005359928527h-3.9v-17.040053599285272h3.9v-17.16005359928527h-3.9v-17.040053599285272h3.9v-17.16005359928527Z"></path><path d="M261.0807164593285 194.12058959213797v17.10005359928527h-3.9v17.16005359928527h3.9v17.040053599285272h-3.9v17.16005359928527h3.9v17.040053599285272h-3.9v17.16005359928527h3.9v17.040053599285272h-3.9v17.16005359928527h3.9v17.040053599285272h-3.9v17.16005359928527h3.9v17.040053599285272v0.06h49.856143291865706v-17.10005359928527h3.9v-17.16005359928527h-3.9v-17.040053599285272h3.9v-17.16005359928527h-3.9v-17.040053599285272h3.9v-17.16005359928527h-3.9v-17.040053599285272h3.9v-17.16005359928527h-3.9v-17.040053599285272h3.9v-17.16005359928527h-3.9v-17.040053599285272v-0.06Z"></path><path d="M315.77685975119425 1v196.4445731674628h188.16058959213797v-196.4445731674628Z"></path></svg>