<?xml version='1.0' standalone='no'?><!DOCTYPE svg PUBLIC '-//W3C//DTD SVG 1.1//EN' 'http://www.w3.org/Graphics/SVG/1.1/DTD/svg11.dtd'><svg width="400mm" height="300mm" viewBox="0 0 400 300" version="1.1" xmlns="http://www.w3.org/2000/svg"><path d="M1 1v18.611838356527905h3.9v18.491838356527907h-3.9v18.611838356527905h3.9v18.491838356527907h-3.9v18.611838356527905h3.9v18.491838356527907h-3.9v18.611838356527905h3.9v18.491838356527907h-3.9v18.611838356527905h3.9v18.491838356527907h-3.9v18.611838356527905h3.9v18.491838356527907h-3.9v18.611838356527905h3.9v18.491838356527907h-3.9v18.611838356527905h3.9v18.491838356527907h-3.9v18.611838356527905h3.9v18.491838356527907h-3.9v18.611838356527905h46.735v-18.611838356527905h-3.9v-18.491838356527907h3.9v-18.611838356527905h-3.9v-18.491838356527907h3.9v-18.611838356527905h-3.9v-18.491838356527907h3.9v-18.611838356527905h-3.9v-18.491838356527907h3.9v-18.611838356527905h-3.9v-18.491838356527907h3.9v-18.611838356527905h-3.9v-18.491838356527907h3.9v-18.611838356527905h-3.9v-18.491838356527907h3.9v-18.611838356527905h-3.9v-18.491838356527907h3.9v-18.611838356527905h-3.9v-18.491838356527907h3.9v-18.611838356527905Z"></path><path d="M52.574999999999996 1v18.551838356527906h-3.9v18.611838356527905h3.9v18.491838356527907h-3.9v18.611838356527905h3.9v18.491838356527907h-3.9v18.611838356527905h3.9v18.491838356527907h-3.9v18.611838356527905h3.9v18.491838356527907h-3.9v18.611838356527905h3.9v18.491838356527907h-3.9v18.611838356527905h3.9v18.491838356527907h-3.9v18.611838356527905h3.9v18.491838356527907h-3.9v18.611838356527905h3.9v18.491838356527907h-3.9v18.611838356527905h3.9v18.491838356527907v0.06h38.935v-18.551838356527906h3.9v-18.611838356527905h-3.9v-18.491838356527907h3.9v-18.611838356527905h-3.9v-18.491838356527907h3.9v-18.611838356527905h-3.9v-18.491838356527907h3.9v-18.611838356527905h-3.9v-18.491838356527907h3.9v-18.611838356527905h-3.9v-18.491838356527907h3.9v-18.611838356527905h-3.9v-18.491838356527907h3.9v-18.611838356527905h-3.9v-18.491838356527907h3.9v-18.611838356527905h-3.9v-18.491838356527907h3.9v-18.611838356527905h-3.9v-18.491838356527907v-0.06Z"></path><path d="M96.35 1v18.611838356527905h3.9v18.491838356527907h-3.9v18.611838356527905h3.9v18.491838356527907h-3.9v18.611838356527905h3.9v18.491838356527907h-3.9v18.611838356527905h3.9v18.491838356527907h-3.9v18.611838356527905h3.9v18.491838356527907h-3.9v18.611838356527905h3.9v18.491838356527907h-3.9v18.611838356527905h3.9v18.491838356527907h-3.9v18.611838356527905h3.9v18.491838356527907h-3.9v18.611838356527905h3.9v18.491838356527907h-3.9v18.611838356527905h46.735v-18.611838356527905h-3.9v-18.491838356527907h3.9v-18.611838356527905h-3.9v-18.491838356527907h3.9v-18.611838356527905h-3.9v-18.491838356527907h3.9v-18.611838356527905h-3.9v-18.491838356527907h3.9v-18.611838356527905h-3.9v-18.491838356527907h3.9v-18.611838356527905h-3.9v-18.491838356527907h3.9v-18.611838356527905h-3.9v-18.491838356527907h3.9v-18.611838356527905h-3.9v-18.491838356527907h3.9v-18.611838356527905h-3.9v-18.491838356527907h3.9v-18.611838356527905Z"></path><path d="M147.92499999999998 1v18.551838356527906h-3.9v18.611838356527905h3.9v18.491838356527907h-3.9v18.611838356527905h3.9v18.491838356527907h-3.9v18.611838356527905h3.9v18.491838356527907h-3.9v18.611838356527905h3.9v18.491838356527907h-3.9v18.611838356527905h3.9v18.491838356527907h-3.9v18.611838356527905h3.9v18.491838356527907h-3.9v18.611838356527905h3.9v18.491838356527907h-3.9v18.611838356527905h3.9v18.491838356527907h-3.9v18.611838356527905h3.9v18.491838356527907v0.06h38.935v-18.551838356527906h3.9v-18.611838356527905h-3.9v-18.491838356527907h3.9v-18.611838356527905h-3.9v-18.491838356527907h3.9v-18.611838356527905h-3.9v-18.491838356527907h3.9v-18.611838356527905h-3.9v-18.491838356527907h3.9v-18.611838356527905h-3.9v-18.491838356527907h3.9v-18.611838356527905h-3.9v-18.491838356527907h3.9v-18.611838356527905h-3.9v-18.491838356527907h3.9v-18.611838356527905h-3.9v-18.491838356527907h3.9v-18.611838356527905h-3.9v-18.491838356527907v-0.06Z"></path><path d="M191.7 1v19.642496043001678h3.9v19.52249604300168h-3.9v19.642496043001678h3.9v19.52249604300168h-3.9v19.642496043001678h3.9v19.52249604300168h-3.9v19.642496043001678h3.9v19.52249604300168h-3.9v19.642496043001678h55.935v-19.642496043001678h-3.9v-19.52249604300168h3.9v-19.642496043001678h-3.9v-19.52249604300168h3.9v-19.642496043001678h-3.9v-19.52249604300168h3.9v-19.642496043001678h-3.9v-19.52249604300168h3.9v-19.642496043001678Z"></path><path d="M195.6 182.26246438701511v19.58249604300168h-3.9v19.642496043001678h3.9v19.52249604300168h-3.9v19.642496043001678h3.9v19.52249604300168h-3.9v19.642496043001678h3.9v19.52249604300168h-3.9v19.642496043001678h3.9v19.52249604300168v0.06h48.135000000000005v-19.58249604300168h3.9v-19.642496043001678h-3.9v-19.52249604300168h3.9v-19.642496043001678h-3.9v-19.52249604300168h3.9v-19.642496043001678h-3.9v-19.52249604300168h3.9v-19.642496043001678h-3.9v-19.52249604300168v-0.06Z"></path><path d="M248.575 1v19.642496043001678h3.9v19.52249604300168h-3.9v19.642496043001678h3.9v19.52249604300168h-3.9v19.642496043001678h3.9v19.52249604300168h-3.9v19.642496043001678h3.9v19.52249604300168h-3.9v19.642496043001678h55.935v-19.642496043001678h-3.9v-19.52249604300168h3.9v-19.642496043001678h-3.9v-19.52249604300168h3.9v-19.642496043001678h-3.9v-19.52249604300168h3.9v-19.642496043001678h-3.9v-19.52249604300168h3.9v-19.642496043001678Z"></path><path d="M252.475 182.26246438701511v19.58249604300168h-3.9v19.642496043001678h3.9v19.52249604300168h-3.9v19.642496043001678h3.9v19.52249604300168h-3.9v19.642496043001678h3.9v19.52249604300168h-3.9v19.642496043001678h3.9v19.52249604300168v0.06h48.135000000000005v-19.58249604300168h3.9v-19.642496043001678h-3.9v-19.52249604300168h3.9v-19.642496043001678h-3.9v-19.52249604300168h3.9v-19.642496043001678h-3.9v-19.52249604300168h3.9v-19.642496043001678h-3.9v-19.52249604300168v-0.06Z"></path><path d="M305.45 1v189.56h176.3024643870151v-189.56Z"></path></svg>