<?xml version='1.0' standalone='no'?><!DOCTYPE svg PUBLIC '-//W3C//DTD SVG 1.1//EN' 'http://www.w3.org/Graphics/SVG/1.1/DTD/svg11.dtd'><svg width="400mm" height="300mm" viewBox="0 0 400 300" version="1.1" xmlns="http://www.w3.org/2000/svg"><path d="M1 1v19.480814375680023h3.9v19.360814375680025h-3.9v19.480814375680023h3.9v19.360814375680025h-3.9v19.480814375680023h3.9v19.360814375680025h-3.9v19.480814375680023h3.9v19.360814375680025h-3.9v19.480814375680023h3.9v19.360814375680025h-3.9v19.480814375680023h3.9v19.360814375680025h-3.9v19.480814375680023h3.9v19.360814375680025h-3.9v19.480814375680023h3.9v19.360814375680025h-3.9v19.480814375680023h45.086827537157056v-19.480814375680023h-3.9v-19.360814375680025h3.9v-19.480814375680023h-3.9v-19.360814375680025h3.9v-19.480814375680023h-3.9v-19.360814375680025h3.9v-19.480814375680023h-3.9v-19.360814375680025h3.9v-19.480814375680023h-3.9v-19.360814375680025h3.9v-19.480814375680023h-3.9v-19.360814375680025h3.9v-19.480814375680023h-3.9v-19.360814375680025h3.9v-19.480814375680023h-3.9v-19.360814375680025h3.9v-19.480814375680023Z"></path><path d="M50.92682753715705 1v19.420814375680024h-3.9v19.480814375680023h3.9v19.360814375680025h-3.9v19.480814375680023h3.9v19.360814375680025h-3.9v19.480814375680023h3.9v19.360814375680025h-3.9v19.480814375680023h3.9v19.360814375680025h-3.9v19.480814375680023h3.9v19.360814375680025h-3.9v19.480814375680023h3.9v19.360814375680025h-3.9v19.480814375680023h3.9v19.360814375680025h-3.9v19.480814375680023h3.9v19.360814375680025v0.06h37.28682753715706v-19.420814375680024h3.9v-19.480814375680023h-3.9v-19.360814375680025h3.9v-19.480814375680023h-3.9v-19.360814375680025h3.9v-19.480814375680023h-3.9v-19.360814375680025h3.9v-19.480814375680023h-3.9v-19.360814375680025h3.9v-19.480814375680023h-3.9v-19.360814375680025h3.9v-19.480814375680023h-3.9v-19.360814375680025h3.9v-19.480814375680023h-3.9v-19.360814375680025h3.9v-19.480814375680023h-3.9v-19.360814375680025v-0.06Z"></path><path d="M93.05365507431411 1v19.480814375680023h3.9v19.360814375680025h-3.9v19.480814375680023h3.9v19.360814375680025h-3.9v19.480814375680023h3.9v19.360814375680025h-3.9v19.480814375680023h3.9v19.360814375680025h-3.9v19.480814375680023h3.9v19.360814375680025h-3.9v19.480814375680023h3.9v19.360814375680025h-3.9v19.480814375680023h3.9v19.360814375680025h-3.9v19.480814375680023h3.9v19.360814375680025h-3.9v19.480814375680023h45.086827537157056v-19.480814375680023h-3.9v-19.360814375680025h3.9v-19.480814375680023h-3.9v-19.360814375680025h3.9v-19.480814375680023h-3.9v-19.360814375680025h3.9v-19.480814375680023h-3.9v-19.360814375680025h3.9v-19.480814375680023h-3.9v-19.360814375680025h3.9v-19.480814375680023h-3.9v-19.360814375680025h3.9v-19.480814375680023h-3.9v-19.360814375680025h3.9v-19.480814375680023h-3.9v-19.360814375680025h3.9v-19.480814375680023Z"></path><path d="M142.98048261147116 1v19.420814375680024h-3.9v19.480814375680023h3.9v19.360814375680025h-3.9v19.480814375680023h3.9v19.360814375680025h-3.9v19.480814375680023h3.9v19.360814375680025h-3.9v19.480814375680023h3.9v19.360814375680025h-3.9v19.480814375680023h3.9v19.360814375680025h-3.9v19.480814375680023h3.9v19.360814375680025h-3.9v19.480814375680023h3.9v19.360814375680025h-3.9v19.480814375680023h3.9v19.360814375680025v0.06h37.28682753715706v-19.420814375680024h3.9v-19.480814375680023h-3.9v-19.360814375680025h3.9v-19.480814375680023h-3.9v-19.360814375680025h3.9v-19.480814375680023h-3.9v-19.360814375680025h3.9v-19.480814375680023h-3.9v-19.360814375680025h3.9v-19.480814375680023h-3.9v-19.360814375680025h3.9v-19.480814375680023h-3.9v-19.360814375680025h3.9v-19.480814375680023h-3.9v-19.360814375680025h3.9v-19.480814375680023h-3.9v-19.360814375680025v-0.06Z"></path><path d="M185.10731014862822 1v18.4018802436978h3.9v18.281880243697803h-3.9v18.4018802436978h3.9v18.281880243697803h-3.9v18.4018802436978h3.9v18.281880243697803h-3.9v18.4018802436978h3.9v18.281880243697803h-3.9v18.4018802436978h54.28682753715705v-18.4018802436978h-3.9v-18.281880243697803h3.9v-18.4018802436978h-3.9v-18.281880243697803h3.9v-18.4018802436978h-3.9v-18.281880243697803h3.9v-18.4018802436978h-3.9v-18.281880243697803h3.9v-18.4018802436978Z"></path><path d="M189.00731014862822 171.09692219328022v18.3418802436978h-3.9v18.4018802436978h3.9v18.281880243697803h-3.9v18.4018802436978h3.9v18.281880243697803h-3.9v18.4018802436978h3.9v18.281880243697803h-3.9v18.4018802436978h3.9v18.281880243697803v0.06h46.486827537157055v-18.3418802436978h3.9v-18.4018802436978h-3.9v-18.281880243697803h3.9v-18.4018802436978h-3.9v-18.281880243697803h3.9v-18.4018802436978h-3.9v-18.281880243697803h3.9v-18.4018802436978h-3.9v-18.281880243697803v-0.06Z"></path><path d="M240.33413768578527 1v18.4018802436978h3.9v18.281880243697803h-3.9v18.4018802436978h3.9v18.281880243697803h-3.9v18.4018802436978h3.9v18.281880243697803h-3.9v18.4018802436978h3.9v18.281880243697803h-3.9v18.4018802436978h54.28682753715705v-18.4018802436978h-3.9v-18.281880243697803h3.9v-18.4018802436978h-3.9v-18.281880243697803h3.9v-18.4018802436978h-3.9v-18.281880243697803h3.9v-18.4018802436978h-3.9v-18.281880243697803h3.9v-18.4018802436978Z"></path><path d="M244.23413768578527 171.09692219328022v18.3418802436978h-3.9v18.4018802436978h3.9v18.281880243697803h-3.9v18.4018802436978h3.9v18.281880243697803h-3.9v18.4018802436978h3.9v18.281880243697803h-3.9v18.4018802436978h3.9v18.281880243697803v0.06h46.486827537157055v-18.3418802436978h3.9v-18.4018802436978h-3.9v-18.281880243697803h3.9v-18.4018802436978h-3.9v-18.281880243697803h3.9v-18.4018802436978h-3.9v-18.281880243697803h3.9v-18.4018802436978h-3.9v-18.281880243697803v-0.06Z"></path><path d="M295.5609652229423 1v182.9673101486282h165.1369221932802v-182.9673101486282Z"></path></svg>