<?xml version='1.0' standalone='no'?><!DOCTYPE svg PUBLIC '-//W3C//DTD SVG 1.1//EN' 'http://www.w3.org/Graphics/SVG/1.1/DTD/svg11.dtd'><svg width="400mm" height="300mm" viewBox="0 0 400 300" version="1.1" xmlns="http://www.w3.org/2000/svg"><path d="M1 1v18.24399479335926h3.9v18.123994793359262h-3.9v18.24399479335926h3.9v18.123994793359262h-3.9v18.24399479335926h3.9v18.123994793359262h-3.9v18.24399479335926h3.9v18.123994793359262h-3.9v18.24399479335926h3.9v18.123994793359262h-3.9v18.24399479335926h3.9v18.123994793359262h-3.9v18.24399479335926h3.9v18.123994793359262h-3.9v18.24399479335926h3.9v18.123994793359262h-3.9v18.24399479335926h43.50853217958159v-18.24399479335926h-3.9v-18.123994793359262h3.9v-18.24399479335926h-3.9v-18.123994793359262h3.9v-18.24399479335926h-3.9v-18.123994793359262h3.9v-18.24399479335926h-3.9v-18.123994793359262h3.9v-18.24399479335926h-3.9v-18.123994793359262h3.9v-18.24399479335926h-3.9v-18.123994793359262h3.9v-18.24399479335926h-3.9v-18.123994793359262h3.9v-18.24399479335926h-3.9v-18.123994793359262h3.9v-18.24399479335926Z"></path><path d="M49.34853217958159 1v18.18399479335926h-3.9v18.24399479335926h3.9v18.123994793359262h-3.9v18.24399479335926h3.9v18.123994793359262h-3.9v18.24399479335926h3.9v18.123994793359262h-3.9v18.24399479335926h3.9v18.123994793359262h-3.9v18.24399479335926h3.9v18.123994793359262h-3.9v18.24399479335926h3.9v18.123994793359262h-3.9v18.24399479335926h3.9v18.123994793359262h-3.9v18.24399479335926h3.9v18.123994793359262v0.06h35.708532179581596v-18.18399479335926h3.9v-18.24399479335926h-3.9v-18.123994793359262h3.9v-18.24399479335926h-3.9v-18.123994793359262h3.9v-18.24399479335926h-3.9v-18.123994793359262h3.9v-18.24399479335926h-3.9v-18.123994793359262h3.9v-18.24399479335926h-3.9v-18.123994793359262h3.9v-18.24399479335926h-3.9v-18.123994793359262h3.9v-18.24399479335926h-3.9v-18.123994793359262h3.9v-18.24399479335926h-3.9v-18.123994793359262v-0.06Z"></path><path d="M89.89706435916318 1v18.24399479335926h3.9v18.123994793359262h-3.9v18.24399479335926h3.9v18.123994793359262h-3.9v18.24399479335926h3.9v18.123994793359262h-3.9v18.24399479335926h3.9v18.123994793359262h-3.9v18.24399479335926h3.9v18.123994793359262h-3.9v18.24399479335926h3.9v18.123994793359262h-3.9v18.24399479335926h3.9v18.123994793359262h-3.9v18.24399479335926h3.9v18.123994793359262h-3.9v18.24399479335926h43.50853217958159v-18.24399479335926h-3.9v-18.123994793359262h3.9v-18.24399479335926h-3.9v-18.123994793359262h3.9v-18.24399479335926h-3.9v-18.123994793359262h3.9v-18.24399479335926h-3.9v-18.123994793359262h3.9v-18.24399479335926h-3.9v-18.123994793359262h3.9v-18.24399479335926h-3.9v-18.123994793359262h3.9v-18.24399479335926h-3.9v-18.123994793359262h3.9v-18.24399479335926h-3.9v-18.123994793359262h3.9v-18.24399479335926Z"></path><path d="M138.24559653874476 1v18.18399479335926h-3.9v18.24399479335926h3.9v18.123994793359262h-3.9v18.24399479335926h3.9v18.123994793359262h-3.9v18.24399479335926h3.9v18.123994793359262h-3.9v18.24399479335926h3.9v18.123994793359262h-3.9v18.24399479335926h3.9v18.123994793359262h-3.9v18.24399479335926h3.9v18.123994793359262h-3.9v18.24399479335926h3.9v18.123994793359262h-3.9v18.24399479335926h3.9v18.123994793359262v0.06h35.708532179581596v-18.18399479335926h3.9v-18.24399479335926h-3.9v-18.123994793359262h3.9v-18.24399479335926h-3.9v-18.123994793359262h3.9v-18.24399479335926h-3.9v-18.123994793359262h3.9v-18.24399479335926h-3.9v-18.123994793359262h3.9v-18.24399479335926h-3.9v-18.123994793359262h3.9v-18.24399479335926h-3.9v-18.123994793359262h3.9v-18.24399479335926h-3.9v-18.123994793359262h3.9v-18.24399479335926h-3.9v-18.123994793359262v-0.06Z"></path><path d="M178.79412871832636 1v17.233772860394858h3.9v17.11377286039486h-3.9v17.233772860394858h3.9v17.11377286039486h-3.9v17.233772860394858h3.9v17.11377286039486h-3.9v17.233772860394858h3.9v17.11377286039486h-3.9v17.233772860394858h52.708532179581596v-17.233772860394858h-3.9v-17.11377286039486h3.9v-17.233772860394858h-3.9v-17.11377286039486h3.9v-17.233772860394858h-3.9v-17.11377286039486h3.9v-17.233772860394858h-3.9v-17.11377286039486h3.9v-17.233772860394858Z"></path><path d="M182.69412871832637 160.58395574355373v17.17377286039486h-3.9v17.233772860394858h3.9v17.11377286039486h-3.9v17.233772860394858h3.9v17.11377286039486h-3.9v17.233772860394858h3.9v17.11377286039486h-3.9v17.233772860394858h3.9v17.11377286039486v0.06h44.9085321795816v-17.17377286039486h3.9v-17.233772860394858h-3.9v-17.11377286039486h3.9v-17.233772860394858h-3.9v-17.11377286039486h3.9v-17.233772860394858h-3.9v-17.11377286039486h3.9v-17.233772860394858h-3.9v-17.11377286039486v-0.06Z"></path><path d="M232.44266089790796 1v17.233772860394858h3.9v17.11377286039486h-3.9v17.233772860394858h3.9v17.11377286039486h-3.9v17.233772860394858h3.9v17.11377286039486h-3.9v17.233772860394858h3.9v17.11377286039486h-3.9v17.233772860394858h52.708532179581596v-17.233772860394858h-3.9v-17.11377286039486h3.9v-17.233772860394858h-3.9v-17.11377286039486h3.9v-17.233772860394858h-3.9v-17.11377286039486h3.9v-17.233772860394858h-3.9v-17.11377286039486h3.9v-17.233772860394858Z"></path><path d="M236.34266089790796 160.58395574355373v17.17377286039486h-3.9v17.233772860394858h3.9v17.11377286039486h-3.9v17.233772860394858h3.9v17.11377286039486h-3.9v17.233772860394858h3.9v17.11377286039486h-3.9v17.233772860394858h3.9v17.11377286039486v0.06h44.9085321795816v-17.17377286039486h3.9v-17.233772860394858h-3.9v-17.11377286039486h3.9v-17.233772860394858h-3.9v-17.11377286039486h3.9v-17.233772860394858h-3.9v-17.11377286039486h3.9v-17.233772860394858h-3.9v-17.11377286039486v-0.06Z"></path><path d="M286.09119307748955 1v176.65412871832638h154.62395574355372v-176.65412871832638Z"></path></svg>