<?xml version='1.0' standalone='no'?><!DOCTYPE svg PUBLIC '-//W3C//DTD SVG 1.1//EN' 'http://www.w3.org/Graphics/SVG/1.1/DTD/svg11.dtd'><svg width="400mm" height="300mm" viewBox="0 0 400 300" version="1.1" xmlns="http://www.w3.org/2000/svg"><path d="M1 1v19.348780123860784h3.9v19.228780123860787h-3.9v19.348780123860784h3.9v19.228780123860787h-3.9v19.348780123860784h3.9v19.228780123860787h-3.9v19.348780123860784h3.9v19.228780123860787h-3.9v19.348780123860784h3.9v19.228780123860787h-3.9v19.348780123860784h3.9v19.228780123860787h-3.9v19.348780123860784h3.9v19.228780123860787h-3.9v19.348780123860784h41.99715136725601v-19.348780123860784h-3.9v-19.228780123860787h3.9v-19.348780123860784h-3.9v-19.228780123860787h3.9v-19.348780123860784h-3.9v-19.228780123860787h3.9v-19.348780123860784h-3.9v-19.228780123860787h3.9v-19.348780123860784h-3.9v-19.228780123860787h3.9v-19.348780123860784h-3.9v-19.228780123860787h3.9v-19.348780123860784h-3.9v-19.228780123860787h3.9v-19.348780123860784Z"></path><path d="M47.837151367256006 1v19.288780123860786h-3.9v19.348780123860784h3.9v19.228780123860787h-3.9v19.348780123860784h3.9v19.228780123860787h-3.9v19.348780123860784h3.9v19.228780123860787h-3.9v19.348780123860784h3.9v19.228780123860787h-3.9v19.348780123860784h3.9v19.228780123860787h-3.9v19.348780123860784h3.9v19.228780123860787h-3.9v19.348780123860784h3.9v19.228780123860787v0.06h34.19715136725601v-19.288780123860786h3.9v-19.348780123860784h-3.9v-19.228780123860787h3.9v-19.348780123860784h-3.9v-19.228780123860787h3.9v-19.348780123860784h-3.9v-19.228780123860787h3.9v-19.348780123860784h-3.9v-19.228780123860787h3.9v-19.348780123860784h-3.9v-19.228780123860787h3.9v-19.348780123860784h-3.9v-19.228780123860787h3.9v-19.348780123860784h-3.9v-19.228780123860787v-0.06Z"></path><path d="M86.87430273451201 1v19.348780123860784h3.9v19.228780123860787h-3.9v19.348780123860784h3.9v19.228780123860787h-3.9v19.348780123860784h3.9v19.228780123860787h-3.9v19.348780123860784h3.9v19.228780123860787h-3.9v19.348780123860784h3.9v19.228780123860787h-3.9v19.348780123860784h3.9v19.228780123860787h-3.9v19.348780123860784h3.9v19.228780123860787h-3.9v19.348780123860784h41.99715136725601v-19.348780123860784h-3.9v-19.228780123860787h3.9v-19.348780123860784h-3.9v-19.228780123860787h3.9v-19.348780123860784h-3.9v-19.228780123860787h3.9v-19.348780123860784h-3.9v-19.228780123860787h3.9v-19.348780123860784h-3.9v-19.228780123860787h3.9v-19.348780123860784h-3.9v-19.228780123860787h3.9v-19.348780123860784h-3.9v-19.228780123860787h3.9v-19.348780123860784Z"></path><path d="M133.71145410176803 1v19.288780123860786h-3.9v19.348780123860784h3.9v19.228780123860787h-3.9v19.348780123860784h3.9v19.228780123860787h-3.9v19.348780123860784h3.9v19.228780123860787h-3.9v19.348780123860784h3.9v19.228780123860787h-3.9v19.348780123860784h3.9v19.228780123860787h-3.9v19.348780123860784h3.9v19.228780123860787h-3.9v19.348780123860784h3.9v19.228780123860787v0.06h34.19715136725601v-19.288780123860786h3.9v-19.348780123860784h-3.9v-19.228780123860787h3.9v-19.348780123860784h-3.9v-19.228780123860787h3.9v-19.348780123860784h-3.9v-19.228780123860787h3.9v-19.348780123860784h-3.9v-19.228780123860787h3.9v-19.348780123860784h-3.9v-19.228780123860787h3.9v-19.348780123860784h-3.9v-19.228780123860787h3.9v-19.348780123860784h-3.9v-19.228780123860787v-0.06Z"></path><path d="M172.74860546902403 1v16.133983436550654h3.9v16.013983436550657h-3.9v16.133983436550654h3.9v16.013983436550657h-3.9v16.133983436550654h3.9v16.013983436550657h-3.9v16.133983436550654h3.9v16.013983436550657h-3.9v16.133983436550654h51.19715136725601v-16.133983436550654h-3.9v-16.013983436550657h3.9v-16.133983436550654h-3.9v-16.013983436550657h3.9v-16.133983436550654h-3.9v-16.013983436550657h3.9v-16.133983436550654h-3.9v-16.013983436550657h3.9v-16.133983436550654Z"></path><path d="M176.64860546902403 150.68585092895592v16.073983436550655h-3.9v16.133983436550654h3.9v16.013983436550657h-3.9v16.133983436550654h3.9v16.013983436550657h-3.9v16.133983436550654h3.9v16.013983436550657h-3.9v16.133983436550654h3.9v16.013983436550657v0.06h43.397151367256015v-16.073983436550655h3.9v-16.133983436550654h-3.9v-16.013983436550657h3.9v-16.133983436550654h-3.9v-16.013983436550657h3.9v-16.133983436550654h-3.9v-16.013983436550657h3.9v-16.133983436550654h-3.9v-16.013983436550657v-0.06Z"></path><path d="M224.88575683628005 1v16.133983436550654h3.9v16.013983436550657h-3.9v16.133983436550654h3.9v16.013983436550657h-3.9v16.133983436550654h3.9v16.013983436550657h-3.9v16.133983436550654h3.9v16.013983436550657h-3.9v16.133983436550654h51.19715136725601v-16.133983436550654h-3.9v-16.013983436550657h3.9v-16.133983436550654h-3.9v-16.013983436550657h3.9v-16.133983436550654h-3.9v-16.013983436550657h3.9v-16.133983436550654h-3.9v-16.013983436550657h3.9v-16.133983436550654Z"></path><path d="M228.78575683628006 150.68585092895592v16.073983436550655h-3.9v16.133983436550654h3.9v16.013983436550657h-3.9v16.133983436550654h3.9v16.013983436550657h-3.9v16.133983436550654h3.9v16.013983436550657h-3.9v16.133983436550654h3.9v16.013983436550657v0.06h43.397151367256015v-16.073983436550655h3.9v-16.133983436550654h-3.9v-16.013983436550657h3.9v-16.133983436550654h-3.9v-16.013983436550657h3.9v-16.133983436550654h-3.9v-16.013983436550657h3.9v-16.133983436550654h-3.9v-16.013983436550657v-0.06Z"></path><path d="M277.0229082035361 1v170.60860546902404h144.7258509289559v-170.60860546902404Z"></path></svg>