<?xml version='1.0' standalone='no'?><!DOCTYPE svg PUBLIC '-//W3C//DTD SVG 1.1//EN' 'http://www.w3.org/Graphics/SVG/1.1/DTD/svg11.dtd'><svg width="400mm" height="300mm" viewBox="0 0 400 300" version="1.1" xmlns="http://www.w3.org/2000/svg"><path d="M1 1v18.106274144965532h3.9v17.986274144965535h-3.9v18.106274144965532h3.9v17.986274144965535h-3.9v18.106274144965532h3.9v17.986274144965535h-3.9v18.106274144965532h3.9v17.986274144965535h-3.9v18.106274144965532h3.9v17.986274144965535h-3.9v18.106274144965532h3.9v17.986274144965535h-3.9v18.106274144965532h3.9v17.986274144965535h-3.9v18.106274144965532h40.549848142988154v-18.106274144965532h-3.9v-17.986274144965535h3.9v-18.106274144965532h-3.9v-17.986274144965535h3.9v-18.106274144965532h-3.9v-17.986274144965535h3.9v-18.106274144965532h-3.9v-17.986274144965535h3.9v-18.106274144965532h-3.9v-17.986274144965535h3.9v-18.106274144965532h-3.9v-17.986274144965535h3.9v-18.106274144965532h-3.9v-17.986274144965535h3.9v-18.106274144965532Z"></path><path d="M46.38984814298815 1v18.046274144965533h-3.9v18.106274144965532h3.9v17.986274144965535h-3.9v18.106274144965532h3.9v17.986274144965535h-3.9v18.106274144965532h3.9v17.986274144965535h-3.9v18.106274144965532h3.9v17.986274144965535h-3.9v18.106274144965532h3.9v17.986274144965535h-3.9v18.106274144965532h3.9v17.986274144965535h-3.9v18.106274144965532h3.9v17.986274144965535v0.06h32.74984814298816v-18.046274144965533h3.9v-18.106274144965532h-3.9v-17.986274144965535h3.9v-18.106274144965532h-3.9v-17.986274144965535h3.9v-18.106274144965532h-3.9v-17.986274144965535h3.9v-18.106274144965532h-3.9v-17.986274144965535h3.9v-18.106274144965532h-3.9v-17.986274144965535h3.9v-18.106274144965532h-3.9v-17.986274144965535h3.9v-18.106274144965532h-3.9v-17.986274144965535v-0.06Z"></path><path d="M83.9796962859763 1v18.106274144965532h3.9v17.986274144965535h-3.9v18.106274144965532h3.9v17.986274144965535h-3.9v18.106274144965532h3.9v17.986274144965535h-3.9v18.106274144965532h3.9v17.986274144965535h-3.9v18.106274144965532h3.9v17.986274144965535h-3.9v18.106274144965532h3.9v17.986274144965535h-3.9v18.106274144965532h3.9v17.986274144965535h-3.9v18.106274144965532h40.549848142988154v-18.106274144965532h-3.9v-17.986274144965535h3.9v-18.106274144965532h-3.9v-17.986274144965535h3.9v-18.106274144965532h-3.9v-17.986274144965535h3.9v-18.106274144965532h-3.9v-17.986274144965535h3.9v-18.106274144965532h-3.9v-17.986274144965535h3.9v-18.106274144965532h-3.9v-17.986274144965535h3.9v-18.106274144965532h-3.9v-17.986274144965535h3.9v-18.106274144965532Z"></path><path d="M129.36954442896445 1v18.046274144965533h-3.9v18.106274144965532h3.9v17.986274144965535h-3.9v18.106274144965532h3.9v17.986274144965535h-3.9v18.106274144965532h3.9v17.986274144965535h-3.9v18.106274144965532h3.9v17.986274144965535h-3.9v18.106274144965532h3.9v17.986274144965535h-3.9v18.106274144965532h3.9v17.986274144965535h-3.9v18.106274144965532h3.9v17.986274144965535v0.06h32.74984814298816v-18.046274144965533h3.9v-18.106274144965532h-3.9v-17.986274144965535h3.9v-18.106274144965532h-3.9v-17.986274144965535h3.9v-18.106274144965532h-3.9v-17.986274144965535h3.9v-18.106274144965532h-3.9v-17.986274144965535h3.9v-18.106274144965532h-3.9v-17.986274144965535h3.9v-18.106274144965532h-3.9v-17.986274144965535h3.9v-18.106274144965532h-3.9v-17.986274144965535v-0.06Z"></path><path d="M166.9593925719526 1v19.395293726748783h3.9v19.275293726748785h-3.9v19.395293726748783h3.9v19.275293726748785h-3.9v19.395293726748783h3.9v19.275293726748785h-3.9v19.395293726748783h49.74984814298816v-19.395293726748783h-3.9v-19.275293726748785h3.9v-19.395293726748783h-3.9v-19.275293726748785h3.9v-19.395293726748783h-3.9v-19.275293726748785h3.9v-19.395293726748783Z"></path><path d="M170.8593925719526 141.3670560872415v19.335293726748784h-3.9v19.395293726748783h3.9v19.275293726748785h-3.9v19.395293726748783h3.9v19.275293726748785h-3.9v19.395293726748783h3.9v19.275293726748785v0.06h41.94984814298816v-19.335293726748784h3.9v-19.395293726748783h-3.9v-19.275293726748785h3.9v-19.395293726748783h-3.9v-19.275293726748785h3.9v-19.395293726748783h-3.9v-19.275293726748785v-0.06Z"></path><path d="M217.64924071494076 1v19.395293726748783h3.9v19.275293726748785h-3.9v19.395293726748783h3.9v19.275293726748785h-3.9v19.395293726748783h3.9v19.275293726748785h-3.9v19.395293726748783h49.74984814298816v-19.395293726748783h-3.9v-19.275293726748785h3.9v-19.395293726748783h-3.9v-19.275293726748785h3.9v-19.395293726748783h-3.9v-19.275293726748785h3.9v-19.395293726748783Z"></path><path d="M221.54924071494077 141.3670560872415v19.335293726748784h-3.9v19.395293726748783h3.9v19.275293726748785h-3.9v19.395293726748783h3.9v19.275293726748785h-3.9v19.395293726748783h3.9v19.275293726748785v0.06h41.94984814298816v-19.335293726748784h3.9v-19.395293726748783h-3.9v-19.275293726748785h3.9v-19.395293726748783h-3.9v-19.275293726748785h3.9v-19.395293726748783h-3.9v-19.275293726748785v-0.06Z"></path><path d="M268.3390888579289 1v164.81939257195262h135.4070560872415v-164.81939257195262Z"></path></svg>