<?xml version='1.0' standalone='no'?><!DOCTYPE svg PUBLIC '-//W3C//DTD SVG 1.1//EN' 'http://www.w3.org/Graphics/SVG/1.1/DTD/svg11.dtd'><svg width="400mm" height="300mm" viewBox="0 0 400 300" version="1.1" xmlns="http://www.w3.org/2000/svg"><path d="M1 1v19.532932109485987h3.9v19.41293210948599h-3.9v19.532932109485987h3.9v19.41293210948599h-3.9v19.532932109485987h3.9v19.41293210948599h-3.9v19.532932109485987h3.9v19.41293210948599h-3.9v19.532932109485987h3.9v19.41293210948599h-3.9v19.532932109485987h3.9v19.41293210948599h-3.9v19.532932109485987h39.16390582726363v-19.532932109485987h-3.9v-19.41293210948599h3.9v-19.532932109485987h-3.9v-19.41293210948599h3.9v-19.532932109485987h-3.9v-19.41293210948599h3.9v-19.532932109485987h-3.9v-19.41293210948599h3.9v-19.532932109485987h-3.9v-19.41293210948599h3.9v-19.532932109485987h-3.9v-19.41293210948599h3.9v-19.532932109485987Z"></path><path d="M45.00390582726363 1v19.47293210948599h-3.9v19.532932109485987h3.9v19.41293210948599h-3.9v19.532932109485987h3.9v19.41293210948599h-3.9v19.532932109485987h3.9v19.41293210948599h-3.9v19.532932109485987h3.9v19.41293210948599h-3.9v19.532932109485987h3.9v19.41293210948599h-3.9v19.532932109485987h3.9v19.41293210948599v0.06h31.36390582726363v-19.47293210948599h3.9v-19.532932109485987h-3.9v-19.41293210948599h3.9v-19.532932109485987h-3.9v-19.41293210948599h3.9v-19.532932109485987h-3.9v-19.41293210948599h3.9v-19.532932109485987h-3.9v-19.41293210948599h3.9v-19.532932109485987h-3.9v-19.41293210948599h3.9v-19.532932109485987h-3.9v-19.41293210948599v-0.06Z"></path><path d="M81.20781165452726 1v19.532932109485987h3.9v19.41293210948599h-3.9v19.532932109485987h3.9v19.41293210948599h-3.9v19.532932109485987h3.9v19.41293210948599h-3.9v19.532932109485987h3.9v19.41293210948599h-3.9v19.532932109485987h3.9v19.41293210948599h-3.9v19.532932109485987h3.9v19.41293210948599h-3.9v19.532932109485987h39.16390582726363v-19.532932109485987h-3.9v-19.41293210948599h3.9v-19.532932109485987h-3.9v-19.41293210948599h3.9v-19.532932109485987h-3.9v-19.41293210948599h3.9v-19.532932109485987h-3.9v-19.41293210948599h3.9v-19.532932109485987h-3.9v-19.41293210948599h3.9v-19.532932109485987h-3.9v-19.41293210948599h3.9v-19.532932109485987Z"></path><path d="M125.2117174817909 1v19.47293210948599h-3.9v19.532932109485987h3.9v19.41293210948599h-3.9v19.532932109485987h3.9v19.41293210948599h-3.9v19.532932109485987h3.9v19.41293210948599h-3.9v19.532932109485987h3.9v19.41293210948599h-3.9v19.532932109485987h3.9v19.41293210948599h-3.9v19.532932109485987h3.9v19.41293210948599v0.06h31.36390582726363v-19.47293210948599h3.9v-19.532932109485987h-3.9v-19.41293210948599h3.9v-19.532932109485987h-3.9v-19.41293210948599h3.9v-19.532932109485987h-3.9v-19.41293210948599h3.9v-19.532932109485987h-3.9v-19.41293210948599h3.9v-19.532932109485987h-3.9v-19.41293210948599h3.9v-19.532932109485987h-3.9v-19.41293210948599v-0.06Z"></path><path d="M161.41562330905452 1v18.142008387379846h3.9v18.02200838737985h-3.9v18.142008387379846h3.9v18.02200838737985h-3.9v18.142008387379846h3.9v18.02200838737985h-3.9v18.142008387379846h48.36390582726363v-18.142008387379846h-3.9v-18.02200838737985h3.9v-18.142008387379846h-3.9v-18.02200838737985h3.9v-18.142008387379846h-3.9v-18.02200838737985h3.9v-18.142008387379846Z"></path><path d="M165.31562330905453 132.59405871165893v18.082008387379847h-3.9v18.142008387379846h3.9v18.02200838737985h-3.9v18.142008387379846h3.9v18.02200838737985h-3.9v18.142008387379846h3.9v18.02200838737985v0.06h40.56390582726363v-18.082008387379847h3.9v-18.142008387379846h-3.9v-18.02200838737985h3.9v-18.142008387379846h-3.9v-18.02200838737985h3.9v-18.142008387379846h-3.9v-18.02200838737985v-0.06Z"></path><path d="M210.71952913631816 1v18.142008387379846h3.9v18.02200838737985h-3.9v18.142008387379846h3.9v18.02200838737985h-3.9v18.142008387379846h3.9v18.02200838737985h-3.9v18.142008387379846h48.36390582726363v-18.142008387379846h-3.9v-18.02200838737985h3.9v-18.142008387379846h-3.9v-18.02200838737985h3.9v-18.142008387379846h-3.9v-18.02200838737985h3.9v-18.142008387379846Z"></path><path d="M214.61952913631816 132.59405871165893v18.082008387379847h-3.9v18.142008387379846h3.9v18.02200838737985h-3.9v18.142008387379846h3.9v18.02200838737985h-3.9v18.142008387379846h3.9v18.02200838737985v0.06h40.56390582726363v-18.082008387379847h3.9v-18.142008387379846h-3.9v-18.02200838737985h3.9v-18.142008387379846h-3.9v-18.02200838737985h3.9v-18.142008387379846h-3.9v-18.02200838737985v-0.06Z"></path><path d="M260.0234349635818 1v159.2756233090545h126.63405871165892v-159.2756233090545Z"></path></svg>