<?xml version='1.0' standalone='no'?><!DOCTYPE svg PUBLIC '-//W3C//DTD SVG 1.1//EN' 'http://www.w3.org/Graphics/SVG/1.1/DTD/svg11.dtd'><svg width="400mm" height="300mm" viewBox="0 0 400 300" version="1.1" xmlns="http://www.w3.org/2000/svg"><path d="M1 1v18.321160499744792h3.9v18.201160499744795h-3.9v18.321160499744792h3.9v18.201160499744795h-3.9v18.321160499744792h3.9v18.201160499744795h-3.9v18.321160499744792h3.9v18.201160499744795h-3.9v18.321160499744792h3.9v18.201160499744795h-3.9v18.321160499744792h3.9v18.201160499744795h-3.9v18.321160499744792h37.836722918866855v-18.321160499744792h-3.9v-18.201160499744795h3.9v-18.321160499744792h-3.9v-18.201160499744795h3.9v-18.321160499744792h-3.9v-18.201160499744795h3.9v-18.321160499744792h-3.9v-18.201160499744795h3.9v-18.321160499744792h-3.9v-18.201160499744795h3.9v-18.321160499744792h-3.9v-18.201160499744795h3.9v-18.321160499744792Z"></path><path d="M43.67672291886685 1v18.261160499744793h-3.9v18.321160499744792h3.9v18.201160499744795h-3.9v18.321160499744792h3.9v18.201160499744795h-3.9v18.321160499744792h3.9v18.201160499744795h-3.9v18.321160499744792h3.9v18.201160499744795h-3.9v18.321160499744792h3.9v18.201160499744795h-3.9v18.321160499744792h3.9v18.201160499744795v0.06h30.03672291886685v-18.261160499744793h3.9v-18.321160499744792h-3.9v-18.201160499744795h3.9v-18.321160499744792h-3.9v-18.201160499744795h3.9v-18.321160499744792h-3.9v-18.201160499744795h3.9v-18.321160499744792h-3.9v-18.201160499744795h3.9v-18.321160499744792h-3.9v-18.201160499744795h3.9v-18.321160499744792h-3.9v-18.201160499744795v-0.06Z"></path><path d="M78.5534458377337 1v18.321160499744792h3.9v18.201160499744795h-3.9v18.321160499744792h3.9v18.201160499744795h-3.9v18.321160499744792h3.9v18.201160499744795h-3.9v18.321160499744792h3.9v18.201160499744795h-3.9v18.321160499744792h3.9v18.201160499744795h-3.9v18.321160499744792h3.9v18.201160499744795h-3.9v18.321160499744792h37.836722918866855v-18.321160499744792h-3.9v-18.201160499744795h3.9v-18.321160499744792h-3.9v-18.201160499744795h3.9v-18.321160499744792h-3.9v-18.201160499744795h3.9v-18.321160499744792h-3.9v-18.201160499744795h3.9v-18.321160499744792h-3.9v-18.201160499744795h3.9v-18.321160499744792h-3.9v-18.201160499744795h3.9v-18.321160499744792Z"></path><path d="M121.23016875660056 1v18.261160499744793h-3.9v18.321160499744792h3.9v18.201160499744795h-3.9v18.321160499744792h3.9v18.201160499744795h-3.9v18.321160499744792h3.9v18.201160499744795h-3.9v18.321160499744792h3.9v18.201160499744795h-3.9v18.321160499744792h3.9v18.201160499744795h-3.9v18.321160499744792h3.9v18.201160499744795v0.06h30.03672291886685v-18.261160499744793h3.9v-18.321160499744792h-3.9v-18.201160499744795h3.9v-18.321160499744792h-3.9v-18.201160499744795h3.9v-18.321160499744792h-3.9v-18.201160499744795h3.9v-18.321160499744792h-3.9v-18.201160499744795h3.9v-18.321160499744792h-3.9v-18.201160499744795h3.9v-18.321160499744792h-3.9v-18.201160499744795v-0.06Z"></path><path d="M156.1068916754674 1v17.016791892620166h3.9v16.89679189262017h-3.9v17.016791892620166h3.9v16.89679189262017h-3.9v17.016791892620166h3.9v16.89679189262017h-3.9v17.016791892620166h47.03672291886685v-17.016791892620166h-3.9v-16.89679189262017h3.9v-17.016791892620166h-3.9v-16.89679189262017h3.9v-17.016791892620166h-3.9v-16.89679189262017h3.9v-17.016791892620166Z"></path><path d="M160.00689167546741 124.71754324834117v16.956791892620167h-3.9v17.016791892620166h3.9v16.89679189262017h-3.9v17.016791892620166h3.9v16.89679189262017h-3.9v17.016791892620166h3.9v16.89679189262017v0.06h39.23672291886685v-16.956791892620167h3.9v-17.016791892620166h-3.9v-16.89679189262017h3.9v-17.016791892620166h-3.9v-16.89679189262017h3.9v-17.016791892620166h-3.9v-16.89679189262017v-0.06Z"></path><path d="M204.08361459433425 1v17.016791892620166h3.9v16.89679189262017h-3.9v17.016791892620166h3.9v16.89679189262017h-3.9v17.016791892620166h3.9v16.89679189262017h-3.9v17.016791892620166h47.03672291886685v-17.016791892620166h-3.9v-16.89679189262017h3.9v-17.016791892620166h-3.9v-16.89679189262017h3.9v-17.016791892620166h-3.9v-16.89679189262017h3.9v-17.016791892620166Z"></path><path d="M207.98361459433426 124.71754324834117v16.956791892620167h-3.9v17.016791892620166h3.9v16.89679189262017h-3.9v17.016791892620166h3.9v16.89679189262017h-3.9v17.016791892620166h3.9v16.89679189262017v0.06h39.23672291886685v-16.956791892620167h3.9v-17.016791892620166h-3.9v-16.89679189262017h3.9v-17.016791892620166h-3.9v-16.89679189262017h3.9v-17.016791892620166h-3.9v-16.89679189262017v-0.06Z"></path><path d="M252.0603375132011 1v153.9668916754674h118.75754324834116v-153.9668916754674Z"></path></svg>