<?xml version='1.0' standalone='no'?><!DOCTYPE svg PUBLIC '-//W3C//DTD SVG 1.1//EN' 'http://www.w3.org/Graphics/SVG/1.1/DTD/svg11.dtd'><svg width="400mm" height="300mm" viewBox="0 0 400 300" version="1.1" xmlns="http://www.w3.org/2000/svg"><path d="M1 1v17.18620706227244h3.9v17.066207062272444h-3.9v17.18620706227244h3.9v17.066207062272444h-3.9v17.18620706227244h3.9v17.066207062272444h-3.9v17.18620706227244h3.9v17.066207062272444h-3.9v17.18620706227244h3.9v17.066207062272444h-3.9v17.18620706227244h3.9v17.066207062272444h-3.9v17.18620706227244h36.56580821169902v-17.18620706227244h-3.9v-17.066207062272444h3.9v-17.18620706227244h-3.9v-17.066207062272444h3.9v-17.18620706227244h-3.9v-17.066207062272444h3.9v-17.18620706227244h-3.9v-17.066207062272444h3.9v-17.18620706227244h-3.9v-17.066207062272444h3.9v-17.18620706227244h-3.9v-17.066207062272444h3.9v-17.18620706227244Z"></path><path d="M42.40580821169902 1v17.126207062272442h-3.9v17.18620706227244h3.9v17.066207062272444h-3.9v17.18620706227244h3.9v17.066207062272444h-3.9v17.18620706227244h3.9v17.066207062272444h-3.9v17.18620706227244h3.9v17.066207062272444h-3.9v17.18620706227244h3.9v17.066207062272444h-3.9v17.18620706227244h3.9v17.066207062272444v0.06h28.765808211699017v-17.126207062272442h3.9v-17.18620706227244h-3.9v-17.066207062272444h3.9v-17.18620706227244h-3.9v-17.066207062272444h3.9v-17.18620706227244h-3.9v-17.066207062272444h3.9v-17.18620706227244h-3.9v-17.066207062272444h3.9v-17.18620706227244h-3.9v-17.066207062272444h3.9v-17.18620706227244h-3.9v-17.066207062272444v-0.06Z"></path><path d="M76.01161642339804 1v17.18620706227244h3.9v17.066207062272444h-3.9v17.18620706227244h3.9v17.066207062272444h-3.9v17.18620706227244h3.9v17.066207062272444h-3.9v17.18620706227244h3.9v17.066207062272444h-3.9v17.18620706227244h3.9v17.066207062272444h-3.9v17.18620706227244h3.9v17.066207062272444h-3.9v17.18620706227244h36.56580821169902v-17.18620706227244h-3.9v-17.066207062272444h3.9v-17.18620706227244h-3.9v-17.066207062272444h3.9v-17.18620706227244h-3.9v-17.066207062272444h3.9v-17.18620706227244h-3.9v-17.066207062272444h3.9v-17.18620706227244h-3.9v-17.066207062272444h3.9v-17.18620706227244h-3.9v-17.066207062272444h3.9v-17.18620706227244Z"></path><path d="M117.41742463509706 1v17.126207062272442h-3.9v17.18620706227244h3.9v17.066207062272444h-3.9v17.18620706227244h3.9v17.066207062272444h-3.9v17.18620706227244h3.9v17.066207062272444h-3.9v17.18620706227244h3.9v17.066207062272444h-3.9v17.18620706227244h3.9v17.066207062272444h-3.9v17.18620706227244h3.9v17.066207062272444v0.06h28.765808211699017v-17.126207062272442h3.9v-17.18620706227244h-3.9v-17.066207062272444h3.9v-17.18620706227244h-3.9v-17.066207062272444h3.9v-17.18620706227244h-3.9v-17.066207062272444h3.9v-17.18620706227244h-3.9v-17.066207062272444h3.9v-17.18620706227244h-3.9v-17.066207062272444h3.9v-17.18620706227244h-3.9v-17.066207062272444v-0.06Z"></path><path d="M151.02323284679608 1v15.962906557824411h3.9v15.84290655782441h-3.9v15.962906557824411h3.9v15.84290655782441h-3.9v15.962906557824411h3.9v15.84290655782441h-3.9v15.962906557824411h45.76580821169902v-15.962906557824411h-3.9v-15.84290655782441h3.9v-15.962906557824411h-3.9v-15.84290655782441h3.9v-15.962906557824411h-3.9v-15.84290655782441h3.9v-15.962906557824411Z"></path><path d="M154.92323284679608 117.34034590477088v15.90290655782441h-3.9v15.962906557824411h3.9v15.84290655782441h-3.9v15.962906557824411h3.9v15.84290655782441h-3.9v15.962906557824411h3.9v15.84290655782441v0.06h37.96580821169902v-15.90290655782441h3.9v-15.962906557824411h-3.9v-15.84290655782441h3.9v-15.962906557824411h-3.9v-15.84290655782441h3.9v-15.962906557824411h-3.9v-15.84290655782441v-0.06Z"></path><path d="M197.72904105849508 1v15.962906557824411h3.9v15.84290655782441h-3.9v15.962906557824411h3.9v15.84290655782441h-3.9v15.962906557824411h3.9v15.84290655782441h-3.9v15.962906557824411h45.76580821169902v-15.962906557824411h-3.9v-15.84290655782441h3.9v-15.962906557824411h-3.9v-15.84290655782441h3.9v-15.962906557824411h-3.9v-15.84290655782441h3.9v-15.962906557824411Z"></path><path d="M201.6290410584951 117.34034590477088v15.90290655782441h-3.9v15.962906557824411h3.9v15.84290655782441h-3.9v15.962906557824411h3.9v15.84290655782441h-3.9v15.962906557824411h3.9v15.84290655782441v0.06h37.96580821169902v-15.90290655782441h3.9v-15.962906557824411h-3.9v-15.84290655782441h3.9v-15.962906557824411h-3.9v-15.84290655782441h3.9v-15.962906557824411h-3.9v-15.84290655782441v-0.06Z"></path><path d="M244.4348492701941 1v148.88323284679606h111.38034590477088v-148.88323284679606Z"></path></svg>